%TF.GenerationSoftware,KiCad,Pcbnew,(5.1.10-1-10_14)*%
%TF.CreationDate,2021-11-05T22:23:08-04:00*%
%TF.ProjectId,UI Schematic,55492053-6368-4656-9d61-7469632e6b69,rev?*%
%TF.SameCoordinates,Original*%
%TF.FileFunction,Legend,Top*%
%TF.FilePolarity,Positive*%
%FSLAX46Y46*%
G04 Gerber Fmt 4.6, Leading zero omitted, Abs format (unit mm)*
G04 Created by KiCad (PCBNEW (5.1.10-1-10_14)) date 2021-11-05 22:23:08*
%MOMM*%
%LPD*%
G01*
G04 APERTURE LIST*
%ADD10C,0.120000*%
%ADD11C,0.150000*%
G04 APERTURE END LIST*
D10*
%TO.C,D1*%
X132355000Y-83165000D02*
X131890000Y-83165000D01*
X129730000Y-83165000D02*
X129265000Y-83165000D01*
X131890827Y-88512815D02*
G75*
G03*
X132354830Y-83165000I-1080827J2787815D01*
G01*
X129729173Y-88512815D02*
G75*
G02*
X129265170Y-83165000I1080827J2787815D01*
G01*
X131890429Y-87979479D02*
G75*
G03*
X131890000Y-83470316I-1080429J2254479D01*
G01*
X129729571Y-87979479D02*
G75*
G02*
X129730000Y-83470316I1080429J2254479D01*
G01*
%TO.C,SW1*%
X133610000Y-78140000D02*
X134020000Y-78140000D01*
X134020000Y-78140000D02*
X134020000Y-71720000D01*
X134020000Y-71720000D02*
X133740000Y-71720000D01*
X132010000Y-71720000D02*
X129610000Y-71720000D01*
X128010000Y-71720000D02*
X127600000Y-71720000D01*
X127600000Y-71720000D02*
X127600000Y-78140000D01*
X127600000Y-78140000D02*
X128010000Y-78140000D01*
X129610000Y-78140000D02*
X132010000Y-78140000D01*
%TO.C,SW2*%
X129610000Y-99730000D02*
X132010000Y-99730000D01*
X127600000Y-99730000D02*
X128010000Y-99730000D01*
X127600000Y-93310000D02*
X127600000Y-99730000D01*
X128010000Y-93310000D02*
X127600000Y-93310000D01*
X132010000Y-93310000D02*
X129610000Y-93310000D01*
X134020000Y-93310000D02*
X133740000Y-93310000D01*
X134020000Y-99730000D02*
X134020000Y-93310000D01*
X133610000Y-99730000D02*
X134020000Y-99730000D01*
%TO.C,D1*%
D11*
X135222380Y-86463095D02*
X134222380Y-86463095D01*
X134222380Y-86225000D01*
X134270000Y-86082142D01*
X134365238Y-85986904D01*
X134460476Y-85939285D01*
X134650952Y-85891666D01*
X134793809Y-85891666D01*
X134984285Y-85939285D01*
X135079523Y-85986904D01*
X135174761Y-86082142D01*
X135222380Y-86225000D01*
X135222380Y-86463095D01*
X135222380Y-84939285D02*
X135222380Y-85510714D01*
X135222380Y-85225000D02*
X134222380Y-85225000D01*
X134365238Y-85320238D01*
X134460476Y-85415476D01*
X134508095Y-85510714D01*
%TO.C,SW1*%
X135454761Y-76263333D02*
X135502380Y-76120476D01*
X135502380Y-75882380D01*
X135454761Y-75787142D01*
X135407142Y-75739523D01*
X135311904Y-75691904D01*
X135216666Y-75691904D01*
X135121428Y-75739523D01*
X135073809Y-75787142D01*
X135026190Y-75882380D01*
X134978571Y-76072857D01*
X134930952Y-76168095D01*
X134883333Y-76215714D01*
X134788095Y-76263333D01*
X134692857Y-76263333D01*
X134597619Y-76215714D01*
X134550000Y-76168095D01*
X134502380Y-76072857D01*
X134502380Y-75834761D01*
X134550000Y-75691904D01*
X134502380Y-75358571D02*
X135502380Y-75120476D01*
X134788095Y-74930000D01*
X135502380Y-74739523D01*
X134502380Y-74501428D01*
X135502380Y-73596666D02*
X135502380Y-74168095D01*
X135502380Y-73882380D02*
X134502380Y-73882380D01*
X134645238Y-73977619D01*
X134740476Y-74072857D01*
X134788095Y-74168095D01*
%TO.C,SW2*%
X135454761Y-97853333D02*
X135502380Y-97710476D01*
X135502380Y-97472380D01*
X135454761Y-97377142D01*
X135407142Y-97329523D01*
X135311904Y-97281904D01*
X135216666Y-97281904D01*
X135121428Y-97329523D01*
X135073809Y-97377142D01*
X135026190Y-97472380D01*
X134978571Y-97662857D01*
X134930952Y-97758095D01*
X134883333Y-97805714D01*
X134788095Y-97853333D01*
X134692857Y-97853333D01*
X134597619Y-97805714D01*
X134550000Y-97758095D01*
X134502380Y-97662857D01*
X134502380Y-97424761D01*
X134550000Y-97281904D01*
X134502380Y-96948571D02*
X135502380Y-96710476D01*
X134788095Y-96520000D01*
X135502380Y-96329523D01*
X134502380Y-96091428D01*
X134597619Y-95758095D02*
X134550000Y-95710476D01*
X134502380Y-95615238D01*
X134502380Y-95377142D01*
X134550000Y-95281904D01*
X134597619Y-95234285D01*
X134692857Y-95186666D01*
X134788095Y-95186666D01*
X134930952Y-95234285D01*
X135502380Y-95805714D01*
X135502380Y-95186666D01*
%TD*%
M02*
