M48
; DRILL file {KiCad (5.1.10-1-10_14)} date Friday, November 05, 2021 at 10:23:11 PM
; FORMAT={-:-/ absolute / inch / decimal}
; #@! TF.CreationDate,2021-11-05T22:23:11-04:00
; #@! TF.GenerationSoftware,Kicad,Pcbnew,(5.1.10-1-10_14)
; #@! TF.FileFunction,Plated,1,2,PTH
FMAT,2
INCH
T1C0.0157
T2C0.0315
T3C0.0354
T4C0.0394
%
G90
G05
T1
X4.1Y-3.0
X4.8Y-2.9
X4.8Y-3.35
X4.8Y-3.5
X4.8Y-3.9
X5.0Y-3.15
T2
X4.4Y-2.9
X4.4Y-3.15
X4.4Y-3.35
X4.4Y-3.6
X4.4Y-3.9
X4.7Y-2.9
X4.7Y-3.15
X4.7Y-3.35
X4.7Y-3.6
X4.7Y-3.9
T3
X5.15Y-3.3
X5.15Y-3.35
X5.15Y-3.4
X5.15Y-3.45
T4
X4.0Y-3.0
X4.0Y-3.1
X4.0Y-3.2
X4.0Y-3.3
X4.0Y-3.4
X4.0Y-3.5
X4.0Y-3.6
X4.0Y-3.7
T0
M30
