%TF.GenerationSoftware,KiCad,Pcbnew,(5.1.10-1-10_14)*%
%TF.CreationDate,2021-11-05T21:54:39-04:00*%
%TF.ProjectId,TempSensor,54656d70-5365-46e7-936f-722e6b696361,rev?*%
%TF.SameCoordinates,Original*%
%TF.FileFunction,Copper,L1,Top*%
%TF.FilePolarity,Positive*%
%FSLAX46Y46*%
G04 Gerber Fmt 4.6, Leading zero omitted, Abs format (unit mm)*
G04 Created by KiCad (PCBNEW (5.1.10-1-10_14)) date 2021-11-05 21:54:39*
%MOMM*%
%LPD*%
G01*
G04 APERTURE LIST*
%TA.AperFunction,ComponentPad*%
%ADD10C,1.200000*%
%TD*%
%TA.AperFunction,ComponentPad*%
%ADD11O,1.600000X1.600000*%
%TD*%
%TA.AperFunction,ComponentPad*%
%ADD12C,1.600000*%
%TD*%
%TA.AperFunction,ComponentPad*%
%ADD13O,1.200000X1.750000*%
%TD*%
%TA.AperFunction,Conductor*%
%ADD14C,0.304800*%
%TD*%
%TA.AperFunction,Conductor*%
%ADD15C,0.250000*%
%TD*%
%TA.AperFunction,Conductor*%
%ADD16C,0.406400*%
%TD*%
G04 APERTURE END LIST*
D10*
%TO.P,U1,2*%
%TO.N,Net-(U1-Pad2)*%
X153020000Y-69850000D03*
%TO.P,U1,1*%
%TO.N,Net-(J1-Pad2)*%
X154290000Y-71120000D03*
%TO.P,U1,3*%
%TO.N,GND*%
X153020000Y-72390000D03*
%TD*%
D11*
%TO.P,R1,2*%
%TO.N,+5V*%
X132080000Y-69850000D03*
D12*
%TO.P,R1,1*%
%TO.N,Net-(J1-Pad2)*%
X139700000Y-69850000D03*
%TD*%
D13*
%TO.P,J1,3*%
%TO.N,GND*%
X139890000Y-76200000D03*
%TO.P,J1,2*%
%TO.N,Net-(J1-Pad2)*%
X137890000Y-76200000D03*
%TO.P,J1,1*%
%TO.N,+5V*%
%TA.AperFunction,ComponentPad*%
G36*
G01*
X135290000Y-76825001D02*
X135290000Y-75574999D01*
G75*
G02*
X135539999Y-75325000I249999J0D01*
G01*
X136240001Y-75325000D01*
G75*
G02*
X136490000Y-75574999I0J-249999D01*
G01*
X136490000Y-76825001D01*
G75*
G02*
X136240001Y-77075000I-249999J0D01*
G01*
X135539999Y-77075000D01*
G75*
G02*
X135290000Y-76825001I0J249999D01*
G01*
G37*
%TD.AperFunction*%
%TD*%
D14*
%TO.N,GND*%
X140572401Y-75517599D02*
X146732401Y-75517599D01*
X139890000Y-76200000D02*
X140572401Y-75517599D01*
D15*
X149892401Y-75517599D02*
X153020000Y-72390000D01*
X146732401Y-75517599D02*
X149892401Y-75517599D01*
D14*
%TO.N,Net-(J1-Pad2)*%
X137890000Y-71660000D02*
X139700000Y-69850000D01*
X137890000Y-76200000D02*
X137890000Y-71660000D01*
D15*
X146050000Y-69850000D02*
X147320000Y-69850000D01*
D14*
X139700000Y-69850000D02*
X146050000Y-69850000D01*
X146050000Y-69850000D02*
X146700000Y-69850000D01*
D15*
X148590000Y-71120000D02*
X154290000Y-71120000D01*
X147320000Y-69850000D02*
X148590000Y-71120000D01*
D16*
%TO.N,+5V*%
X135890000Y-76200000D02*
X135890000Y-73660000D01*
X135890000Y-73660000D02*
X132080000Y-69850000D01*
%TD*%
M02*
