%TF.GenerationSoftware,KiCad,Pcbnew,(5.1.10-1-10_14)*%
%TF.CreationDate,2021-11-05T21:54:39-04:00*%
%TF.ProjectId,TempSensor,54656d70-5365-46e7-936f-722e6b696361,rev?*%
%TF.SameCoordinates,Original*%
%TF.FileFunction,Legend,Top*%
%TF.FilePolarity,Positive*%
%FSLAX46Y46*%
G04 Gerber Fmt 4.6, Leading zero omitted, Abs format (unit mm)*
G04 Created by KiCad (PCBNEW (5.1.10-1-10_14)) date 2021-11-05 21:54:39*
%MOMM*%
%LPD*%
G01*
G04 APERTURE LIST*
%ADD10C,0.150000*%
%ADD11C,0.300000*%
%ADD12C,0.120000*%
G04 APERTURE END LIST*
D10*
%TO.C,U1*%
X154405354Y-69041326D02*
X154602411Y-69187474D01*
X154602411Y-69187474D02*
X154784195Y-69352233D01*
X154784195Y-69352233D02*
X154948954Y-69534017D01*
X154948954Y-69534017D02*
X155095102Y-69731074D01*
X155095102Y-69731074D02*
X155221231Y-69941508D01*
X155221231Y-69941508D02*
X155326127Y-70163291D01*
X155326127Y-70163291D02*
X155408779Y-70394288D01*
X155408779Y-70394288D02*
X155468391Y-70632274D01*
X155468391Y-70632274D02*
X155504390Y-70874957D01*
X155504390Y-70874957D02*
X155516428Y-71120000D01*
X155516428Y-71120000D02*
X155504390Y-71365043D01*
X155504390Y-71365043D02*
X155468391Y-71607726D01*
X155468391Y-71607726D02*
X155408779Y-71845712D01*
X155408779Y-71845712D02*
X155326127Y-72076709D01*
X155326127Y-72076709D02*
X155221231Y-72298492D01*
X155221231Y-72298492D02*
X155095102Y-72508926D01*
X155095102Y-72508926D02*
X154948954Y-72705983D01*
X154948954Y-72705983D02*
X154784195Y-72887767D01*
X154784195Y-72887767D02*
X154602411Y-73052526D01*
X154602411Y-73052526D02*
X154405354Y-73198674D01*
D11*
X151820000Y-69245000D02*
X151820000Y-72995000D01*
D12*
%TO.C,R1*%
X139160000Y-70890000D02*
X139160000Y-71220000D01*
X139160000Y-71220000D02*
X132620000Y-71220000D01*
X132620000Y-71220000D02*
X132620000Y-70890000D01*
X139160000Y-68810000D02*
X139160000Y-68480000D01*
X139160000Y-68480000D02*
X132620000Y-68480000D01*
X132620000Y-68480000D02*
X132620000Y-68810000D01*
%TO.C,J1*%
X133830000Y-74390000D02*
X133830000Y-79110000D01*
X133830000Y-79110000D02*
X141950000Y-79110000D01*
X141950000Y-79110000D02*
X141950000Y-74390000D01*
X141950000Y-74390000D02*
X133830000Y-74390000D01*
X135590000Y-74390000D02*
X135590000Y-74190000D01*
X135590000Y-74190000D02*
X135290000Y-74190000D01*
X135290000Y-74190000D02*
X135290000Y-74390000D01*
X135590000Y-74290000D02*
X135290000Y-74290000D01*
X136390000Y-74390000D02*
X136390000Y-75000000D01*
X136390000Y-75000000D02*
X134440000Y-75000000D01*
X134440000Y-75000000D02*
X134440000Y-78500000D01*
X134440000Y-78500000D02*
X141340000Y-78500000D01*
X141340000Y-78500000D02*
X141340000Y-75000000D01*
X141340000Y-75000000D02*
X139390000Y-75000000D01*
X139390000Y-75000000D02*
X139390000Y-74390000D01*
X133830000Y-75700000D02*
X134440000Y-75700000D01*
X133830000Y-77000000D02*
X134440000Y-77000000D01*
X141950000Y-75700000D02*
X141340000Y-75700000D01*
X141950000Y-77000000D02*
X141340000Y-77000000D01*
X136790000Y-78500000D02*
X136790000Y-78000000D01*
X136790000Y-78000000D02*
X136990000Y-78000000D01*
X136990000Y-78000000D02*
X136990000Y-78500000D01*
X136890000Y-78500000D02*
X136890000Y-78000000D01*
X138790000Y-78500000D02*
X138790000Y-78000000D01*
X138790000Y-78000000D02*
X138990000Y-78000000D01*
X138990000Y-78000000D02*
X138990000Y-78500000D01*
X138890000Y-78500000D02*
X138890000Y-78000000D01*
X134780000Y-74090000D02*
X133530000Y-74090000D01*
X133530000Y-74090000D02*
X133530000Y-75340000D01*
%TO.C,U1*%
D10*
X153985595Y-74167380D02*
X153985595Y-74976904D01*
X154033214Y-75072142D01*
X154080833Y-75119761D01*
X154176071Y-75167380D01*
X154366547Y-75167380D01*
X154461785Y-75119761D01*
X154509404Y-75072142D01*
X154557023Y-74976904D01*
X154557023Y-74167380D01*
X155557023Y-75167380D02*
X154985595Y-75167380D01*
X155271309Y-75167380D02*
X155271309Y-74167380D01*
X155176071Y-74310238D01*
X155080833Y-74405476D01*
X154985595Y-74453095D01*
%TO.C,R1*%
X135723333Y-72672380D02*
X135390000Y-72196190D01*
X135151904Y-72672380D02*
X135151904Y-71672380D01*
X135532857Y-71672380D01*
X135628095Y-71720000D01*
X135675714Y-71767619D01*
X135723333Y-71862857D01*
X135723333Y-72005714D01*
X135675714Y-72100952D01*
X135628095Y-72148571D01*
X135532857Y-72196190D01*
X135151904Y-72196190D01*
X136675714Y-72672380D02*
X136104285Y-72672380D01*
X136390000Y-72672380D02*
X136390000Y-71672380D01*
X136294761Y-71815238D01*
X136199523Y-71910476D01*
X136104285Y-71958095D01*
%TO.C,J1*%
X137556666Y-72752380D02*
X137556666Y-73466666D01*
X137509047Y-73609523D01*
X137413809Y-73704761D01*
X137270952Y-73752380D01*
X137175714Y-73752380D01*
X138556666Y-73752380D02*
X137985238Y-73752380D01*
X138270952Y-73752380D02*
X138270952Y-72752380D01*
X138175714Y-72895238D01*
X138080476Y-72990476D01*
X137985238Y-73038095D01*
%TD*%
M02*
